<svg width="200" height="200" viewBox="0 0 200 200" fill="none" xmlns="http://www.w3.org/2000/svg">
  <rect x="20" y="20" width="70" height="70" rx="8" stroke="#0052CC" stroke-width="6" fill="none"/>
  <rect x="35" y="35" width="12" height="12" rx="2" fill="#0052CC"/>
  <rect x="60" y="35" width="12" height="12" rx="2" fill="#0052CC"/>
  <rect x="35" y="60" width="12" height="12" rx="2" fill="#0052CC"/>
  <rect x="110" y="20" width="70" height="70" rx="8" stroke="#0052CC" stroke-width="6" fill="none"/>
  <rect x="125" y="35" width="12" height="12" rx="2" fill="#0052CC"/>
  <rect x="150" y="35" width="12" height="12" rx="2" fill="#0052CC"/>
  <rect x="125" y="60" width="12" height="12" rx="2" fill="#0052CC"/>
  <rect x="150" y="60" width="12" height="12" rx="2" fill="#0052CC"/>
  <rect x="20" y="110" width="70" height="70" rx="8" stroke="#0052CC" stroke-width="6" fill="none"/>
  <rect x="35" y="125" width="12" height="12" rx="2" fill="#0052CC"/>
  <rect x="60" y="125" width="12" height="12" rx="2" fill="#0052CC"/>
  <rect x="35" y="150" width="12" height="12" rx="2" fill="#0052CC"/>
  <rect x="110" y="110" width="70" height="70" rx="8" stroke="#0052CC" stroke-width="6" fill="none"/>
  <rect x="125" y="125" width="12" height="12" rx="2" fill="#0052CC"/>
  <rect x="150" y="150" width="12" height="12" rx="2" fill="#0052CC"/>
  <rect x="125" y="150" width="12" height="12" rx="2" fill="#0052CC"/>
</svg>
